# xmcd CD database file
# Copyright (C) 1993-1996 Ti Kan
#
# Track frame offsets:
# 182
# 12612
# 22105
# 34487
# 49217
# 62625
# 74802
# 88780
# 99017
# 110717
#
# Disc length: 1633 seconds
#
# Revision: 0
# Processed by: cddbd v1.4b41PL1 Copyright (c) Steve Scherf et al.
# Submitted via: inCDius 1.1b5
#
DISCID=91065f0a
DTITLE=Johnny Paycheck - Best Of Johnny Paycheck
DYEAR=1900
DGENRE=
TTITLE0=Take This Job And Shove It
TTITLE1=Mister Lovemaker
TTITLE2=She's All I Got
TTITLE3=Someone To Give My Love To
TTITLE4=Slide Off Of Your Satin Sheets
TTITLE5=Song And Dance Man
TTITLE6=I'm The Only Hell (Mama Ever Raised)
TTITLE7=Motel Time Again
TTITLE8=For A Minute There
TTITLE9=Something About You I Love
EXTD=
EXTT0=
EXTT1=
EXTT2=
EXTT3=
EXTT4=
EXTT5=
EXTT6=
EXTT7=
EXTT8=
EXTT9=
PLAYORDER=
